<svg width="26" height="21" viewBox="0 0 26 21" fill="none" xmlns="http://www.w3.org/2000/svg">
<g clip-path="url(#clip0)">
<path d="M25.0193 12V6.33334C25.0193 1.33334 25.0193 1.33334 18.5001 1.33334L13.7693 1.33334H7.23082C6.16873 1.33334 5.30774 2.07954 5.30774 3.00001V6.33334" stroke="#FFFCFC"/>
<path d="M25.0193 11.3333L25.0001 15.5C25.0001 19.6667 25.0001 19.6667 19.5001 19.6667H13.2992H9.63466H7.23082C6.16873 19.6667 5.30774 18.9205 5.30774 18V14.6667" stroke="#FFFCFC"/>
<path d="M20.0708 10.7947C20.2585 10.6319 20.2585 10.3681 20.0708 10.2053L17.0112 7.55371C16.8234 7.39099 16.5189 7.39099 16.3313 7.55371C16.1435 7.71643 16.1435 7.98025 16.3313 8.14296L19.0509 10.5L16.3313 12.857C16.1435 13.0197 16.1435 13.2836 16.3313 13.4462C16.5189 13.609 16.8234 13.609 17.0112 13.4462L20.0708 10.7947ZM0.5 10.9167H19.7308V10.0833H0.5V10.9167Z" fill="white"/>
</g>
<defs>
<clipPath id="clip0">
<rect x="0.5" y="0.5" width="25" height="20" fill="white"/>
</clipPath>
</defs>
</svg>
